# xmcd CD database file
#
# Track frame offsets:
#	150
#	16438
#	37528
#	54874
#	76602
#	101469
#	123928
#	145190
#
# Disc length: 2233 seconds
#
# Revision: 0
# Processed by: cddbd v1.5.2PL0 Copyright (c) Steve Scherf et al.
# Submitted via: CDex 1.70beta2
#
DISCID=4d08b708
DTITLE=JABBERLOOP - OOParts
DYEAR=2009
DGENRE=Jazz
TTITLE0=AREA51
TTITLE1=Crystal Skull
TTITLE2=シアワセノコモレビ
TTITLE3=バミューダ・トライアングル
TTITLE4=黄金ジェット
TTITLE5=Fish in the sky
TTITLE6=Fiesta
TTITLE7=Behind The Wind (HEAVYGRINDER Remix)
EXTD=YEAR: 2009
EXTT0=
EXTT1=
EXTT2=
EXTT3=
EXTT4=
EXTT5=
EXTT6=
EXTT7=
PLAYORDER=
